<svg width="800" height="800" viewBox="0 0 800 800" xmlns="http://www.w3.org/2000/svg">
    <defs>
        <radialGradient id="glow" cx="50%" cy="50%" r="50%" fx="50%" fy="50%">
            <stop offset="0%" stop-color="#a5b4fc" stop-opacity="0.9" />
            <stop offset="50%" stop-color="#6366f1" stop-opacity="0.5" />
            <stop offset="100%" stop-color="#0f172a" stop-opacity="0" />
        </radialGradient>
        <filter id="blur">
            <feGaussianBlur in="SourceGraphic" stdDeviation="15" />
        </filter>
    </defs>
    
    <circle cx="400" cy="400" r="300" fill="url(#glow)" filter="url(#blur)" />
    
    <g stroke="#e0e7ff" stroke-width="2" fill="none" opacity="0.9">
        <circle cx="400" cy="400" r="100" />
        <circle cx="400" cy="400" r="180" opacity="0.7" />
        <circle cx="400" cy="400" r="260" opacity="0.5" />
        
        <!-- Petals Layer 1 -->
        <path d="M400 400 Q450 300 400 150 Q350 300 400 400" transform="rotate(0 400 400)" fill="url(#glow)" fill-opacity="0.2" />
        <path d="M400 400 Q450 300 400 150 Q350 300 400 400" transform="rotate(45 400 400)" fill="url(#glow)" fill-opacity="0.2" />
        <path d="M400 400 Q450 300 400 150 Q350 300 400 400" transform="rotate(90 400 400)" fill="url(#glow)" fill-opacity="0.2" />
        <path d="M400 400 Q450 300 400 150 Q350 300 400 400" transform="rotate(135 400 400)" fill="url(#glow)" fill-opacity="0.2" />
        <path d="M400 400 Q450 300 400 150 Q350 300 400 400" transform="rotate(180 400 400)" fill="url(#glow)" fill-opacity="0.2" />
        <path d="M400 400 Q450 300 400 150 Q350 300 400 400" transform="rotate(225 400 400)" fill="url(#glow)" fill-opacity="0.2" />
        <path d="M400 400 Q450 300 400 150 Q350 300 400 400" transform="rotate(270 400 400)" fill="url(#glow)" fill-opacity="0.2" />
        <path d="M400 400 Q450 300 400 150 Q350 300 400 400" transform="rotate(315 400 400)" fill="url(#glow)" fill-opacity="0.2" />

         <!-- Petals Layer 2 -->
        <path d="M400 400 Q430 320 400 220 Q370 320 400 400" transform="rotate(22.5 400 400)" opacity="0.8" />
        <path d="M400 400 Q430 320 400 220 Q370 320 400 400" transform="rotate(67.5 400 400)" opacity="0.8" />
        <path d="M400 400 Q430 320 400 220 Q370 320 400 400" transform="rotate(112.5 400 400)" opacity="0.8" />
        <path d="M400 400 Q430 320 400 220 Q370 320 400 400" transform="rotate(157.5 400 400)" opacity="0.8" />
        <path d="M400 400 Q430 320 400 220 Q370 320 400 400" transform="rotate(202.5 400 400)" opacity="0.8" />
        <path d="M400 400 Q430 320 400 220 Q370 320 400 400" transform="rotate(247.5 400 400)" opacity="0.8" />
        <path d="M400 400 Q430 320 400 220 Q370 320 400 400" transform="rotate(292.5 400 400)" opacity="0.8" />
        <path d="M400 400 Q430 320 400 220 Q370 320 400 400" transform="rotate(337.5 400 400)" opacity="0.8" />
    </g>
</svg>
